<?xml version="1.0" encoding="UTF-8"?>
<svg id="_Слой_2" data-name="Слой 2" xmlns="http://www.w3.org/2000/svg" viewBox="0 0 245.12 237.51">
  <defs>
    <style>
      .cls-1 {
        fill: #010101;
      }
    </style>
  </defs>
  <g id="_Слой_1-2" data-name="Слой 1">
    <path class="cls-1" d="m122.47,237.5c-29.31,0-58.62.01-87.92,0-11.98,0-22.37-3.56-29.22-14.05C2.1,218.49-.01,213.1,0,206.93c.1-46.95.1-93.89.04-140.84,0-6.19,2.41-11.64,5.84-16.17,6.91-9.1,16.25-13.9,28.15-13.77,22.48.25,44.96-.06,67.44.06,4.41.02,8.02-1.81,11.68-3.65,12.19-6.13,24.3-12.4,36.5-18.52,2.04-1.02,4.22-1.71,5.34-3.92.14-.28.29-.83.39-.82,9.25,1.04,14.86-7.38,23.26-8.87,6.99-1.24,9.94-.09,12.34,6.73,2.92,8.31,4.85,16.89,6.62,25.48.63,3.07,1.84,3.66,4.48,3.7,5.95.07,11.95-.76,17.81,1.13,16.13,5.2,24.59,17.65,24.92,33.88.37,18.45.09,36.92.09,55.37,0,13.46-.39,26.94.12,40.39.45,11.8-.64,23.57-.09,35.34.97,20.72-15.06,35.18-35.02,35.05-29.14-.18-58.28-.05-87.42-.05v.04Zm-.44-147.39v.03c-32.63,0-65.26.08-97.89-.11-4.01-.02-4.91.97-4.89,4.91.16,35.45.07,70.9.07,106.34,0,12.32,4.06,16.49,16.23,16.49,58.44.01,116.87,0,175.31-.02,9.8,0,14.09-4.3,14.09-14.18.02-36.28-.1-72.56.09-108.85.02-4.3-1.56-4.7-5.11-4.69-32.63.11-65.26.07-97.89.07Zm54.54-68.16c-31.43,16.83-63.42,31.46-95.77,47.86h105.8c-.64-3.72-1.21-7.25-1.88-10.76-.41-2.15-1.41-3.34-4.02-3.18-4.48.27-8.99.19-13.48.03-5.53-.19-9.01-4.32-9.28-10.7-.22-5.37,2.03-7.18,7.99-8.42,4.43-.92,8.84-.46,13.32-1.01-.89-4.57-1.77-9.06-2.7-13.82Zm-108.79,34.03c-11.29,0-22.58-.08-33.86.03-7.41.07-12.37,3.96-14.43,10.91-.36,1.22-1.28,2.94.82,2.98,6.8.12,14.02,1.32,20.3-.52,9.64-2.83,18.02-9.09,27.17-13.4Zm147.49,13.96c1.83,0,3.66.01,5.49,0,4.62-.04,5.17-.91,3.24-5.14-2.78-6.1-14.28-11.08-20.32-8.75-.79.3-1.37.65-1.23,2.04,1.01,9.82,3.08,11.84,12.82,11.85Z"/>
    <path class="cls-1" d="m59.24,167.77c5.71,0,10.99.12,16.27-.04,4.09-.12,5.81,1.69,5.53,5.68-.1,1.49-.02,2.99-.02,4.49.01,2.91-1.22,4.72-4.31,4.94-11.79.86-23.59.37-35.39.35-3.6,0-6.61-6.12-5.16-10.44.8-2.38,1.92-4.73,3.96-6.65,6.9-6.51,13.34-13.49,20.63-19.59,2.21-1.85,3.51-4.19,3.33-7.37-.14-2.61.28-5.17-3.42-5.32-3.14-.13-6.18-.51-7.12,3.88-.96,4.43-3.87,7.82-8.52,7.99-4.34.16-7.61-2.62-8.94-6.82-1.42-4.49.92-8.53,3.11-12,5.38-8.53,14.02-9.94,23.2-8.94,7.41.81,14.06,3.37,17.11,10.99,3,7.49,2.06,14.62-2.46,21.4-4.63,6.93-12.01,10.9-17.8,17.45Z"/>
    <path class="cls-1" d="m130.04,140.14c0,5.16-.03,10.32.02,15.47.01,1.19-.64,3.12,1.35,3.13,2.73,0,4.49.85,3.47,3.66-1.26,3.46,3.81,9.17-3.59,10.44-2.19.38-1.22,2.04-1.28,3.14-.14,2.68-.03,5.81-2.95,6.73-3.81,1.2-8.01,2.37-11.78-.28-2.43-1.71-2.26-5.26-1.81-7.04.85-3.35-1.02-2.42-2.4-2.43-7.32-.06-14.65-.11-21.97.01-2.96.05-3.77-1.13-4.27-4.02-1.11-6.37,2.04-11.42,4.83-16.27,5.48-9.51,9.84-19.57,15.32-29.06,2.01-3.48,3.88-6.14,8.84-4.91,3.45.85,7.29.31,10.94.1,3.97-.23,5.34,1.76,5.32,5.36-.03,5.32,0,10.65,0,15.97-.02,0-.04,0-.06,0Zm-15.96-.27c-.28-.07-.56-.14-.84-.21-3.38,6.29-6.76,12.58-10.3,19.16,3.23,0,5.73-.12,8.22.04,2.06.12,3.02-.39,2.96-2.69-.13-5.43-.04-10.86-.04-16.29Z"/>
    <path class="cls-1" d="m195.2,135.79c-5.42,0-10.34-.12-15.25.04-4.3.14-6.05-1.98-6.04-6.01,0-1.83,0-3.66.07-5.48.14-3.55,1.91-5.54,5.59-5.53,10.48.02,20.95.16,31.43.04,4-.05,4.47,2.63,4.9,5.43.71,4.58-.88,8.71-2.69,12.82-6.06,13.75-12.17,27.48-17.97,41.34-1.48,3.54-3.48,4.88-7.12,4.42-1.64-.21-3.34-.21-4.98,0-6.88.86-7.21-2.4-4.9-7.75,5.58-12.92,11.16-25.84,16.98-39.3Z"/>
    <path class="cls-1" d="m162.43,118.87c8.5-.02,8.64.25,6.58,8.6-4.07,16.51-8.15,33.02-11.97,49.59-.98,4.24-2.65,6.61-7.31,5.77-.8-.15-1.66-.02-2.49-.02-6.19.02-7.45-1.36-6.08-7.32,2.61-11.31,5.37-22.59,8.09-33.87,1.23-5.1,2.53-10.18,3.73-15.29,1.75-7.43,1.72-7.44,9.45-7.45Z"/>
  </g>
</svg>