<?xml version="1.0" encoding="UTF-8"?>
<svg id="_Слой_2" data-name="Слой 2" xmlns="http://www.w3.org/2000/svg" viewBox="0 0 260.1 202.97">
  <defs>
    <style>
      .cls-1 {
        fill: #fbca0d;
      }

      .cls-2 {
        fill: #010101;
      }
    </style>
  </defs>
  <g id="_Слой_1-2" data-name="Слой 1">
    <path class="cls-2" d="m130.15,202.91c-34.31,0-68.62-.01-102.93,0-17.7,0-27.05-9.17-27.07-26.81C.09,136.48.22,96.86,0,57.23c-.09-15.59,9.17-24.61,25.2-24.96,7.69-.17,7.5-.07,7.77-7.83.21-5.96-1.38-12.15,2.63-17.72C38.53,2.65,41.98.15,47.09.14c7.16-.02,14.32-.21,21.48-.11,10.38.14,15.5,5.4,16.28,16.26.33,4.64.2,9.32.05,13.98-.07,2.22.63,2.79,2.82,2.78,28.48-.08,56.95-.1,85.43.02,2.82.01,2.72-1.26,2.81-3.28.27-6.12-.75-12.27.74-18.38,1.95-7.97,5.51-11.19,13.58-11.3,7.49-.1,14.99-.1,22.47.16,8.21.28,13.8,6.21,14.03,14.63.13,4.82.2,9.66-.03,14.48-.14,2.9.39,4.32,3.71,3.93,2.79-.33,5.65-.08,8.49-.1,12.03-.07,20.41,8.29,20.9,20.4.3,7.3.05,14.57.01,21.85-.16,28.97-.05,57.94-.07,86.91,0,7.3.96,14.81-.42,21.85-2.49,12.61-10.57,18.37-24.28,18.53-34.97.39-69.95.13-104.93.13v.03ZM207.53,32.98c.12-2.65.09-5.31.4-7.93.51-4.35-.75-6.23-5.62-5.94-7.01.42-7.03.08-7.02,7.05q.01,6.81,6.73,6.81c1.83,0,3.66,0,5.49-.01v.02Zm-77.6,20.21c-34.62,0-69.25.04-103.87-.06-3.59-.01-5.2.48-5.19,4.75.17,39.27.07,78.55.08,117.82,0,5.94,1.45,7.38,7.28,7.38,67.75,0,135.5,0,203.25-.01,6.67,0,7.5-.81,7.51-7.42.03-39.11-.04-78.21.12-117.32.02-4.17-1.18-5.24-5.3-5.22-34.62.17-69.25.09-103.87.09Zm-65-26.1c0-1.38-.18-2.4.03-3.35.84-3.79-.79-4.65-4.37-4.58-7.69.14-7.69-.05-7.7,7.79,0,1.48-.02,2.97-.02,4.45,0,.84.08,1.85,1.15,1.78,3.38-.2,6.92.99,10.12-.72,2.71-1.45-.5-3.96.78-5.37Z"/>
    <path class="cls-1" d="m207.52,32.96s.01.02.01.02c0,0-.01-.02-.01-.02Z"/>
    <path class="cls-2" d="m177.7,90.31c7.1.08,7.07.08,7.13-7.25.03-2.94-.51-5.98,1.43-8.63,3.34-4.56,7.86-3.04,12.06-2.15,3.54.75,4,4.03,4.49,6.98.61,3.65-1.76,8.62,1.19,10.7,2.46,1.73,7.07.3,10.71.47,6.4.29,8.95,2.96,9.15,9.14.22,6.56-3.11,8.99-9.39,10.53-2.19.54-4.68.37-6.95.03-4.17-.63-5.17,1.29-4.71,4.94.18,1.47.05,2.99.04,4.48-.08,6.52-2.9,9.63-8.66,9.59-6.05-.05-9.29-3.34-9.34-9.5q-.08-9.26-9.52-9.45c-7.07-.14-11.41-3.88-11.48-9.9-.08-6.42,3.9-9.9,11.35-9.97.83,0,1.66,0,2.49,0Z"/>
    <path class="cls-2" d="m65.65,110.25c-5.64,0-11.29.15-16.93-.04-5.9-.2-8.69-3.33-8.85-9.43-.16-5.85,2.93-10.3,8.23-10.42,12.61-.3,25.24-.26,37.86.03,4.97.11,7.97,4.44,7.93,10.05-.04,5.92-2.86,9.34-8.82,9.66-6.46.34-12.94.08-19.42.08v.08Z"/>
  </g>
</svg>