<?xml version="1.0" encoding="UTF-8"?>
<svg id="_Слой_2" data-name="Слой 2" xmlns="http://www.w3.org/2000/svg" viewBox="0 0 220.76 245.06">
  <defs>
    <style>
      .cls-1 {
        fill: #fbca0d;
      }

      .cls-2 {
        fill: #010101;
      }
    </style>
  </defs>
  <g id="_Слой_1-2" data-name="Слой 1">
    <path class="cls-2" d="m109.12,244.85c-27.31,0-54.63-.53-81.91.2C10.43,245.49-.07,233.21,0,217.51c.19-39.78.03-79.56.03-119.34,0-13.31.02-26.63.1-39.94.04-6.97.89-13.57,9.04-15.99,2.18-.65,1.29-2.44,1.3-3.74.07-8.65-.02-17.31.04-25.97C10.57,4.47,14.84.07,22.87.06,56.5,0,90.13.09,123.77,0c5.89-.02,10.51,2.09,14.54,6.3,11.09,11.6,22.28,23.1,33.55,34.52,1.05,1.06,1.91,4.32,4.45,1.8,1.71-1.7,4.51-3.04,1.83-6.43-3.05-3.86-2.23-7.76,1.4-11.01,4.19-3.74,9.5-4.57,12.96-1.16,9.19,9.05,18.11,18.39,26.95,27.78,2.46,2.62,1.22,8.6-1.9,11.6-3.24,3.12-8.94,4.12-11.74,1.17-3.56-3.74-4.22.48-5.96,1.57-2.68,1.68-.64,2.87.59,4.12,5.02,5.1,9.96,10.28,15.06,15.29,2.63,2.58,4.08,5.39,4.07,9.2-.11,42.11-.29,84.22-.05,126.33.06,11.18-11.54,24-24.49,23.83-28.63-.37-57.28-.12-85.91-.12v.03Zm89.67-127.97c.1-5.81.19-11.62.3-17.42.05-2.5-1.09-4.38-2.81-6.12-23.14-23.39-46.26-46.82-69.36-70.25-1.57-1.6-3.15-2.56-5.61-2.55-24.63.15-49.27.14-73.9.22-5.14.02-11.97-1.74-14.96.85-3.46,2.99-.5,10.02-1.13,15.24-.44,3.65.74,4.67,4.54,4.65,26.13-.13,52.26.02,78.38.12,4.79.02,9.52.26,13.27,4.03,19.69,19.84,39.45,39.61,59.13,59.47,3.91,3.95,7.3,8.43,11.94,11.64l-.12.14.34-.02ZM43.37,189.49c.13,3.79-.07,7.16,3.97,8.66,3.96,1.47,7.41,1.19,10.47-1.99,2.99-3.12,6.17-6.07,9.13-9.22,1.6-1.7,3.38-2.45,5.7-2.44,15.15.12,30.31.21,45.46.22,2.51,0,4.47.74,6.19,2.55,2.87,3.01,5.88,5.88,8.78,8.87,2.7,2.78,5.84,3.65,9.47,2.21,3.73-1.48,4.93-4.41,5-8.28.13-6.77-5.37-9.85-9.35-13.35-3.08-2.71-4.02-5.27-4-8.83.06-9.99.89-20.05-.04-29.95-1.08-11.55,1.78-20.53,11.29-27.61,4.33-3.23,4.34-9.44,1.14-12.77-3.47-3.61-9.21-3.55-13.43.29-2.58,2.35-5.14,4.78-7.39,7.43-2.46,2.9-5.3,3.97-9.11,3.9-10.82-.2-21.7-.69-32.46.13-10.34.79-18.93-1.08-25-10.08-.27-.4-.71-.7-1.09-1.03-3.98-3.44-9.76-3.64-12.82-.47-2.87,2.99-2.68,8.87.64,12.64,2.75,3.12,5.67,6.09,8.64,9.01,1.89,1.85,2.8,3.81,2.75,6.59-.18,10.15-.78,20.37.1,30.45.98,11.31-1.41,20.53-11.08,27.22-2.08,1.44-3.62,3.46-2.97,5.84Z"/>
    <path class="cls-1" d="m43.37,189.49c-.65-2.38.89-4.4,2.97-5.84,9.67-6.69,12.07-15.91,11.08-27.22-.88-10.08-.28-20.3-.1-30.45.05-2.78-.86-4.73-2.75-6.59-2.96-2.92-5.89-5.89-8.64-9.01-3.32-3.77-3.51-9.65-.64-12.64,3.05-3.18,8.84-2.97,12.82.47.38.33.82.62,1.09,1.03,6.07,9,14.65,10.87,25,10.08,10.76-.82,21.64-.33,32.46-.13,3.81.07,6.65-1,9.11-3.9,2.26-2.66,4.81-5.08,7.39-7.43,4.21-3.85,9.96-3.9,13.43-.29,3.2,3.33,3.19,9.54-1.14,12.77-9.51,7.08-12.37,16.06-11.29,27.61.93,9.9.09,19.96.04,29.95-.02,3.57.92,6.12,4,8.83,3.98,3.5,9.48,6.58,9.35,13.35-.07,3.87-1.27,6.8-5,8.28-3.63,1.44-6.77.57-9.47-2.21-2.9-2.98-5.91-5.86-8.78-8.87-1.72-1.81-3.68-2.55-6.19-2.55-15.15,0-30.31-.1-45.46-.22-2.32-.02-4.1.73-5.7,2.44-2.96,3.15-6.14,6.1-9.13,9.22-3.05,3.18-6.51,3.46-10.47,1.99-4.04-1.5-3.83-4.87-3.97-8.66Zm31.92-41.72c0,5.65.1,11.3-.05,16.94-.06,2.31.51,3.26,3,3.23,11.47-.1,22.93-.07,34.4-.03,3.08.01,4.53-1.31,4.52-4.45-.02-10.96-.06-21.93.16-32.89.07-3.42-1.3-4.26-4.39-4.24-10.8.07-21.6.04-32.4-.14-3.75-.06-5.49,1.1-5.31,5.13.25,5.47.06,10.96.07,16.44Z"/>
    <path class="cls-1" d="m198.58,116.76s.23.12.22.12c0,0-.34.02-.34.02l.12-.14Z"/>
    <path class="cls-2" d="m75.29,147.77c0-5.48.19-10.97-.06-16.44-.18-4.03,1.56-5.19,5.31-5.13,10.8.18,21.6.21,32.4.14,3.1-.02,4.46.82,4.39,4.24-.22,10.96-.17,21.93-.16,32.89,0,3.14-1.44,4.46-4.52,4.45-11.47-.04-22.94-.07-34.4.03-2.5.02-3.07-.92-3-3.23.15-5.64.05-11.3.04-16.94Z"/>
  </g>
</svg>