<?xml version="1.0" encoding="UTF-8"?>
<svg id="_Слой_2" data-name="Слой 2" xmlns="http://www.w3.org/2000/svg" viewBox="0 0 267.3 240.93">
  <defs>
    <style>
      .cls-1 {
        fill: #fbca0d;
      }

      .cls-2 {
        fill: #010101;
      }
    </style>
  </defs>
  <g id="_Слой_1-2" data-name="Слой 1">
    <path class="cls-2" d="m76.69,103.12c-7.02-13.39-10.38-27.31-9.18-42.07,1.49-18.4,9.17-33.81,23.05-46.14C102.54,4.26,116.57-.62,132.39.06c22.02.96,39.27,10.76,51.88,28.91,9.59,13.81,12.52,29.2,11.03,45.54-1.18,13.02-6.03,24.96-12.43,36.26-11.78,20.79-23.1,41.85-35.65,62.2-1.98,3.22-3.93,6.47-6.04,9.6-5.41,8.01-13.73,8.7-19.45.9-6.13-8.36-11.41-17.35-16.88-26.17-6.24-10.05-12.32-20.21-18.38-30.37-1.09-1.82-2.07-3.08-4.54-3.02-6.49.15-12.99.11-19.48-.1-2.63-.08-3.25,1.45-3.97,3.4-10.34,27.78-20.71,55.55-31.11,83.32-.85,2.26-1.94,4.42-3.35,7.6,9.64-3.05,18.47-5.77,27.25-8.64,6.36-2.08,12.64-4.4,18.98-6.53,9.25-3.11,18.07-3.04,27.33,1.21,11.61,5.32,23.87,9.21,35.77,13.93,2.05.81,2.79.37,3.98-1.19,6.5-8.57,13.78-16.63,19.54-25.66,5.01-7.86,11.62-11.41,20.38-12.46,6.81-.82,13.63-1.76,20.37-3.05,10.84-2.07,19.35-8.73,28.07-14.9.94-.66.75-1.66.44-2.69-3.15-10.48-6.38-20.93-9.29-31.47-.71-2.58-1.98-2.92-4.18-2.86-4.33.11-8.66.12-12.99.02-4.86-.11-8.68-3.71-9.29-8.58-.6-4.77,3-10.87,7.47-11.37,8.92-1,17.93-1.05,26.88-.16,4.99.5,6.19,4.91,7.56,8.75,3.98,11.16,6.94,22.63,10.26,34,5.17,17.65,10.79,35.18,16.02,52.81,2.84,9.55,6.17,18.95,8.38,28.69,1.59,6.99-2.58,12.72-9.75,12.73-39.13.03-78.26.02-117.4.01-4.75,0-8.84-2.35-13.09-3.99-13.62-5.25-27.22-10.54-40.68-16.18-4.87-2.04-8.7.65-12.69,1.86-18.48,5.61-36.83,11.67-55.2,17.62-3.76,1.22-7.62,1.07-11.33.4-5.28-.95-8.56-9.67-5.87-15.55,7.8-17.03,12.97-35.03,19.51-52.53,7.69-20.56,15.23-41.18,22.68-61.83,2.11-5.83,7.07-7.3,14-7.38,6.31-.08,12.62-.02,19.54-.02Zm88.75-36.82c1.78-20.61-17.97-34.38-33.72-34.39-20.8,0-38.72,17.47-36.8,37.87.76,8.06,5.58,16.01,12.01,22.23,7.96,7.7,17.51,9.25,28.04,9,16.31-.38,30.52-16.27,30.48-34.71Zm67.55,113.15c-14.22,11.75-31,15.56-48.49,17.61-2.6.3-5.92-.42-7.87,2-5.55,6.87-10.89,13.92-16.74,21.44h85.71c-4.2-13.68-8.32-27.11-12.6-41.05Z"/>
    <path class="cls-1" d="m165.44,66.31c.04,18.44-14.17,34.33-30.48,34.71-10.52.25-20.08-1.3-28.04-9-6.43-6.22-11.25-14.17-12.01-22.23-1.92-20.4,16-37.87,36.8-37.87,15.75,0,35.5,13.77,33.72,34.39Z"/>
  </g>
</svg>