<?xml version="1.0" encoding="UTF-8"?>
<svg id="_Слой_2" data-name="Слой 2" xmlns="http://www.w3.org/2000/svg" viewBox="0 0 180.13 195.15">
  <defs>
    <style>
      .cls-1 {
        fill: #010101;
      }
    </style>
  </defs>
  <g id="_Слой_1-2" data-name="Слой 1">
    <g>
      <path class="cls-1" d="m.05,95.97c0-27.79-.01-55.59,0-83.38C.06,3.45,3.48.07,12.71.07,50.67.06,88.63.14,126.59,0c5.87-.02,10.4,1.62,14.57,5.94,11.17,11.58,22.74,22.77,34.13,34.14,3.48,3.48,4.89,7.38,4.85,12.67-.29,40.6-.05,81.21-.12,121.82-.02,10.43-5.09,16.7-15,19.96-1.66.55-3.25.52-4.87.53-10.32.05-20.64.03-30.97.02-37.77,0-75.55-.14-113.32.07C6.6,195.2-.05,188.27,0,179.36c.16-27.79.06-55.59.05-83.38Zm20.25.78h.06c0,23.96,0,47.91,0,71.87,0,3.08-.19,5.91,4.47,5.9,43.27-.15,86.53-.19,129.8-.11,4.14,0,5.14-1.92,5.11-5.45-.07-6.82-.04-13.64-.04-20.46,0-27.78-.13-55.57.09-83.35.04-4.93-1.5-6.35-6.23-6.02-5.46.39-11.03-.37-16.46.19-8.59.88-16.63-7.53-16.12-16.03.36-6.13-.19-12.32.15-18.46.24-4.28-.89-5.66-5.45-5.63-29.46.22-58.91.11-88.37.1-6.9,0-6.97-.02-6.98,7.1-.03,23.46-.01,46.92-.01,70.37Z"/>
      <path class="cls-1" d="m89.95,90.31c-11.96,0-23.93,0-35.89,0-4.35,0-7.56-1.74-9.17-5.98-1.68-4.43-1.19-8.38,2.33-11.8,1.75-1.69,3.75-2.35,6.17-2.34,24.26.03,48.53-.03,72.79.03,6.27.02,9.79,3.75,9.83,9.94.04,6.27-3.41,10.01-9.66,10.06-12.13.1-24.26.03-36.39.03v.06Z"/>
      <path class="cls-1" d="m80.88,127.01c-9.75,0-17.24.26-24.7-.07-9.24-.41-13.81-8.23-9.47-15.76,1.86-3.23,4.61-5.03,8.5-5.02,15.46.04,30.91-.02,46.37.05,5.83.03,9.92,3.47,10.39,8.42.61,6.48-2.15,10.68-8.5,11.83-8.21,1.49-16.57.14-22.58.55Z"/>
    </g>
  </g>
</svg>