<?xml version="1.0" encoding="UTF-8"?>
<svg id="_Слой_2" data-name="Слой 2" xmlns="http://www.w3.org/2000/svg" viewBox="0 0 218.66 189.17">
  <defs>
    <style>
      .cls-1 {
        fill: #fbca0d;
      }

      .cls-2 {
        fill: #010101;
      }
    </style>
  </defs>
  <g id="_Слой_1-2" data-name="Слой 1">
    <path class="cls-2" d="m110.69,35.86c27.64,0,55.29.25,82.92-.11,12.14-.16,20.23,7.71,23.72,17.94,1.25,3.67,1.02,7.55,1.04,11.34.13,31.46-.03,62.92.29,94.38.21,20.39-13.33,29.86-29.3,29.76-54.62-.33-109.24-.32-163.86-.19-11.33.03-19.6-9.12-23.33-17.49-1.67-3.76-2.11-7.8-2.1-11.99C.16,116.38.2,73.27,0,30.15c-.03-5.41,2.19-10.33,2.13-15.63-.01-1.1.89-1.11,1.5-1.59,1.67-1.33,3.57-2.62,4.69-4.36C13.24.87,20.87.06,28.89.07,78.69.07,128.48.15,178.27,0c8.96-.03,15.36,4.24,21.19,10.27,1.98,2.05,3.61,3.91,3.6,7.15-.01,4.43-.53,8.21-5.15,10.15-4.08,1.71-8.36.33-11.64-3.49-2.35-2.73-5.48-4.08-9.12-4.08-48.62-.02-97.25,0-145.87-.06-5.1,0-8.52,2.36-10.48,6.88-2.62,6.03-.78,8.96,5.46,8.96,28.14,0,56.28,0,84.42,0v.09Zm64.54,110.18v.07c7.32,0,14.64-.13,21.96.06,2.9.07,4.09-.51,4.03-3.75-.21-11.64-.18-23.28-.07-34.92.03-3.11-.89-4.59-4.23-4.56-13.47.09-26.95-.1-40.43.07-8.63.11-15.45,7.41-15.48,16.05-.02,4.82-.14,9.65,0,14.47.21,7.18,5.56,12.4,12.75,12.49,7.15.09,14.31.02,21.46.02Zm-89.84-60.82v-.11c10.48,0,20.96,0,31.45,0,3.99,0,6.4-1.76,6.25-5.94-.15-4.06-2.85-5.17-6.46-5.17-20.63.02-41.27.05-61.9-.02-3.96-.01-6.53,1.4-6.58,5.57-.05,4.45,2.64,5.78,6.79,5.72,10.15-.15,20.3-.05,30.45-.05Zm88.59-14.26c-4.48.03-7.18,2.53-7.03,6.48.16,3.96,3.06,6.75,7.05,6.79,4.08.04,7.14-2.91,7-6.73-.16-4.29-2.61-6.57-7.03-6.54Z"/>
    <path class="cls-1" d="m175.23,146.04c-7.15,0-14.31.07-21.46-.02-7.19-.09-12.54-5.31-12.75-12.49-.14-4.82-.02-9.65,0-14.47.03-8.64,6.84-15.94,15.48-16.05,13.47-.18,26.95.02,40.43-.07,3.34-.02,4.25,1.46,4.23,4.56-.1,11.64-.13,23.28.07,34.92.06,3.24-1.13,3.82-4.03,3.75-7.31-.19-14.64-.06-21.96-.06v-.07Z"/>
    <path class="cls-1" d="m173.99,70.96c4.41-.03,6.87,2.26,7.03,6.54.14,3.82-2.93,6.77-7,6.73-4-.04-6.9-2.83-7.05-6.79-.15-3.96,2.55-6.45,7.03-6.48Z"/>
  </g>
</svg>