<?xml version="1.0" encoding="UTF-8"?>
<svg id="_Слой_2" data-name="Слой 2" xmlns="http://www.w3.org/2000/svg" viewBox="0 0 220.06 238.58">
  <defs>
    <style>
      .cls-1 {
        fill: #010101;
      }
    </style>
  </defs>
  <g id="_Слой_1-2" data-name="Слой 1">
    <path class="cls-1" d="m109.04,238.43c-32.3,0-64.61-.19-96.9.14-7.48.08-11.71-5.56-11.87-11.16-.24-7.98-.49-16,.09-23.95.27-3.76,2.51-7.36,3.73-11.08,4-12.18,14.39-16.78,25.05-20.74,8.55-3.18,17.46-5.39,26.08-8.41,8-2.8,11.55-6.25,12.2-15.25.12-1.61-.03-3.24-.85-3.95-7.84-6.79-10.78-16.76-16.52-24.86-3.69-5.21-7.82-9.96-10.14-16.09-4.09-10.82-2.08-21,4.66-29.5,3.69-4.66,4.51-8.25,3.81-13.88-1.5-12.08,1.71-23.53,8.26-33.75C66.25,10.95,80.42,2.89,97.94.68c18.15-2.29,35.19,1.15,50.21,11.75,13.32,9.4,20.02,23.01,21.78,39,.52,4.69,1.04,9.5-.75,14.24-.87,2.31.84,4.27,2.49,6.01,6.14,6.45,9.37,14.53,8.98,23.06-.21,4.48-1.04,9.77-4.62,13.96-7.65,8.95-12.28,19.92-18.98,29.54-1.04,1.49-2.05,3-3.13,4.45-5.18,6.92-2.97,15.83,5.18,18.8,8.44,3.08,17.21,5.22,25.71,8.14,9.81,3.37,19.63,6.86,26.38,15.54,5.37,6.91,8.71,14.57,8.83,23.43.07,5.49.03,10.99-.01,16.48-.06,8.54-4.91,13.38-13.56,13.38-32.47.03-64.94.01-97.4.01v-.02Zm2.4-95.65c6.6.43,15.44-3.33,22.64-10.37,9.87-9.66,14.8-22.86,23.1-33.72,2.31-3.02,1.61-7.1-1.48-9.99-4.86-4.54-7.78-9.73-6.62-16.66.57-3.43-.96-5.24-4.34-6.57-18.61-7.3-37.07-14.97-55.67-22.29-2.77-1.09-5.96-2.89-9-.02-4.47,4.22-8.82,8.54-9.71,14.98-.38,2.77-.85,5.85-.06,8.42,2.52,8.24-.26,14.44-6.24,19.92-5.02,4.6-6.07,7.82-2.56,12.55,6.59,8.9,11.61,18.74,17.72,27.87,6.57,9.82,16.12,15.65,32.23,15.87Zm20.32,15.93c-11.79,4.24-23.52,6.35-35.83,2.9-7.96-2.23-8.01-2.03-12.19,5.42-.64,1.15-1.27,2.33-2.08,3.35-1.97,2.48-1.67,3.77,1.42,5.32,12.23,6.12,25.11,6.46,38.17,4.59,5.12-.73,10.27-2.06,14.87-4.76,1.46-.85,3-1.32,1.21-3.54-3.13-3.88-4.2-8.75-5.56-13.29Z"/>
  </g>
</svg>