<?xml version="1.0" encoding="UTF-8"?>
<svg id="_Слой_2" data-name="Слой 2" xmlns="http://www.w3.org/2000/svg" viewBox="0 0 251.41 251.95">
  <defs>
    <style>
      .cls-1 {
        fill: #010101;
      }
    </style>
  </defs>
  <g id="_Слой_1-2" data-name="Слой 1">
    <path class="cls-1" d="m122.74,251.92C57.79,253.47,5.92,198.71.6,137.69c-3.15-36.14,6.12-68.63,29.84-95.74C53.84,15.21,84.17,1.09,120.19.06c78.42-2.23,124.53,55.54,130.26,108.51,4.09,37.79-4.86,71.73-30.13,100.5-25.28,28.79-57.17,43.56-97.59,42.84Zm-1.6-52.16c19.86.28,35.26-4.38,49.08-14.93,25.01-19.09,36.39-51.47,26.35-81.8-5.46-16.48-15.58-29.75-29.61-39.7-12.92-9.17-27.52-12.7-43.58-12.69-20.62.01-36.72,8.99-50.61,22.7-13.69,13.5-19.43,31-20.97,49.7-.49,5.96.42,12.25,1.76,18.37,7.77,35.45,36.77,58.64,67.59,58.36Z"/>
    <path class="cls-1" d="m183.47,126.07c1.69,33.5-29.41,58.87-58.76,57.91-16.17-.53-29.2-6.69-40.62-17.24-11.01-10.17-13.78-24.54-18.49-37.88,2.94-7.28.71-16.11,3.84-22.43,6.19-12.47,13.9-24.6,27.36-31.31,9.26-4.61,18.74-7.14,29.24-7.45,31.99-.95,59.9,29.4,57.43,58.39Zm-46.87-.3c.52-8.66-5.4-11.06-11.59-11.75-5.55-.62-11.49,5.85-11.48,11.69.01,6.96,4.6,11.14,12.16,11.09,6.98-.05,10.96-4.06,10.9-11.03Zm16.21-.89c4.91.05,7.7-2.5,7.69-7.02,0-4.4-2.58-6.94-7.13-7.04-4.95-.1-7.79,2.31-7.9,6.72-.12,4.7,2.47,7.29,7.34,7.34Zm-55.04-14.11c-4.87.09-7.39,2.63-7.27,7.35.09,3.68,3.97,6.84,8.3,6.75,4.18-.09,6.88-2.87,6.72-6.92-.17-4.37-3.29-7.27-7.74-7.18Zm34.75-14.3c-.03-4.37-2.99-7.6-6.99-7.6-3.65,0-7.08,3.68-7.02,7.57.05,3.57,3.41,7.21,6.73,7.3,4.6.13,7.31-2.58,7.28-7.26Zm8.72,61.37c4.63,0,7.24-2.43,7.32-6.83.07-3.58-3.2-7.04-6.77-7.17-3.88-.15-7.59,3.63-7.21,7.8.35,3.81,2.21,6.53,6.66,6.2Zm-31.35-.02c3.97-.14,7.05-3.89,6.55-8.28-.46-4.05-3.64-5.3-6.99-5.65-3.44-.36-6.91,3.55-6.85,7.15.06,3.39,3.84,6.9,7.29,6.78Z"/>
  </g>
</svg>